<svg xmlns="http://www.w3.org/2000/svg" viewBox="0 0 128 128" role="img" aria-labelledby="title desc" shape-rendering="crispEdges">
  <title id="title">Monki</title>
  <desc id="desc">A static retro pixel monkey mark in lime and violet.</desc>
  <defs>
    <linearGradient id="edge" x1="0" y1="0" x2="1" y2="1">
      <stop offset="0" stop-color="#b8ff2e"/>
      <stop offset="1" stop-color="#6637e8"/>
    </linearGradient>
  </defs>
  <rect x="8" y="8" width="112" height="112" rx="22" fill="#0c0e12"/>
  <path d="M28 8h72v4h12v8h8v80h-4v12h-16v8H28v-4H16v-8H8V28h4V16h16z" fill="none" stroke="url(#edge)" stroke-width="4"/>
  <path d="M42 30h12v-8h20v8h12v8h8v44h-8v12H74v8H54v-8H42V82h-8V38h8z" fill="#1a2029"/>
  <path d="M26 48h12v32H26l-8-8V56zm76 0h-12v32h12l8-8V56z" fill="#f4f0e6"/>
  <path d="M26 52h8v24h-8l-4-4V56z" fill="#b8ff2e"/>
  <path d="M102 52h-8v24h8l4-4V56z" fill="#6637e8"/>
  <path d="M46 42h36v8h8v28h-8v12H46V78h-8V50h8z" fill="#f4f0e6"/>
  <rect x="46" y="52" width="16" height="16" fill="#0c0e12"/>
  <rect x="66" y="52" width="16" height="16" fill="#0c0e12"/>
  <rect x="50" y="56" width="8" height="8" fill="#b8ff2e"/>
  <rect x="70" y="56" width="8" height="8" fill="#6637e8"/>
  <rect x="58" y="70" width="12" height="6" fill="#0c0e12"/>
  <path d="M50 80h8v4h12v-4h8v8H50z" fill="#0c0e12"/>
  <path d="M22 108h28v4H22zm56 0h28v4H78z" fill="#b8ff2e"/>
  <rect x="54" y="108" width="20" height="4" fill="#6637e8"/>
</svg>
